{
  "accessors": [
    {
      "bufferView": 2,
      "componentType": 5126,
      "count": 5404,
      "max": [
        2.822268009185791,
        5.7196636199951172,
        1.5342051982879639
      ],
      "min": [
        -2.7231199741363525,
        -1.1238024234771729,
        -1.4412137269973755
      ],
      "type": "VEC3"
    },
    {
      "bufferView": 2,
      "byteOffset": 64848,
      "componentType": 5126,
      "count": 5404,
      "max": [
        0.99999547004699707,
        1,
        0.99990260601043701
      ],
      "min": [
        -0.99999552965164185,
        -0.9999467134475708,
        -1
      ],
      "type": "VEC3"
    },
    {
      "bufferView": 3,
      "componentType": 5126,
      "count": 5404,
      "max": [
        0.9999997615814209,
        0.99944281578063965,
        1,
        1
      ],
      "min": [
        -0.99323570728302002,
        -0.99982702732086182,
        -1,
        -1
      ],
      "type": "VEC4"
    },
    {
      "bufferView": 1,
      "componentType": 5126,
      "count": 5404,
      "max": [
        0.98370981216430664,
        0.97304624319076538
      ],
      "min": [
        0.028196021914482117,
        0.097908683121204376
      ],
      "type": "VEC2"
    },
    {
      "bufferView": 1,
      "byteOffset": 43232,
      "componentType": 5126,
      "count": 5404,
      "max": [
        1.5797522922071985e+29,
        1
      ],
      "min": [
        0,
        0
      ],
      "type": "VEC2"
    },
    {
      "bufferView": 1,
      "byteOffset": 86464,
      "componentType": 5126,
      "count": 5404,
      "max": [
        0.98370981216430664,
        0.97304624319076538
      ],
      "min": [
        0.028196021914482117,
        0.097908683121204376
      ],
      "type": "VEC2"
    },
    {
      "bufferView": 0,
      "componentType": 5125,
      "count": 24648,
      "max": [
        5403
      ],
      "min": [
        0
      ],
      "type": "SCALAR"
    }
  ],
  "asset": {
    "extras": {
      "author": "masteruslan (https://sketchfab.com/masteruslan)",
      "license": "CC-BY-4.0 (http://creativecommons.org/licenses/by/4.0/)",
      "source": "https://sketchfab.com/models/4c2e54d433dd4ac98de5d0e52b8c851e",
      "title": "Viking Helmet"
    },
    "generator": "Sketchfab-3.32.3",
    "version": "2.0"
  },
  "bufferViews": [
    {
      "buffer": 0,
      "byteLength": 98592,
      "byteOffset": 0,
      "name": "floatBufferViews",
      "target": 34963
    },
    {
      "buffer": 0,
      "byteLength": 129696,
      "byteOffset": 98592,
      "byteStride": 8,
      "name": "floatBufferViews",
      "target": 34962
    },
    {
      "buffer": 0,
      "byteLength": 129696,
      "byteOffset": 228288,
      "byteStride": 12,
      "name": "floatBufferViews",
      "target": 34962
    },
    {
      "buffer": 0,
      "byteLength": 86464,
      "byteOffset": 357984,
      "byteStride": 16,
      "name": "floatBufferViews",
      "target": 34962
    }
  ],
  "buffers": [
    {
      "byteLength": 444448,
      "uri": "scene.bin"
    }
  ],
  "materials": [
    {
      "doubleSided": true,
      "emissiveFactor": [
        0,
        0,
        0
      ],
      "name": "AllTexture",
      "pbrMetallicRoughness": {
        "baseColorFactor": [
          1,
          1,
          1,
          1
        ],
        "metallicFactor": 0,
        "roughnessFactor": 0.92074838159999994
      }
    }
  ],
  "meshes": [
    {
      "name": "polySurface1_AllTexture_0",
      "primitives": [
        {
          "attributes": {
            "NORMAL": 1,
            "POSITION": 0,
            "TANGENT": 2,
            "TEXCOORD_0": 3,
            "TEXCOORD_1": 4,
            "TEXCOORD_2": 5
          },
          "indices": 6,
          "material": 0,
          "mode": 4
        }
      ]
    }
  ],
  "nodes": [
    {
      "children": [
        1
      ],
      "name": "RootNode (gltf orientation matrix)",
      "rotation": [
        -0.70710678118654746,
        -0,
        -0,
        0.70710678118654757
      ]
    },
    {
      "children": [
        2
      ],
      "name": "RootNode (model correction matrix)"
    },
    {
      "children": [
        3
      ],
      "matrix": [
        1,
        0,
        0,
        0,
        0,
        0,
        1,
        0,
        0,
        -1,
        0,
        0,
        0,
        0,
        0,
        1
      ],
      "name": "35b836e573de457bb49115a9f472fe07.fbx"
    },
    {
      "children": [
        4
      ],
      "name": "RootNode"
    },
    {
      "children": [
        5
      ],
      "matrix": [
        1,
        0,
        0,
        0,
        0,
        1,
        0,
        0,
        0,
        0,
        1,
        0,
        0,
        2.5494635105133057,
        0,
        1
      ],
      "name": "polySurface1"
    },
    {
      "mesh": 0,
      "name": "polySurface1_AllTexture_0"
    }
  ],
  "scene": 0,
  "scenes": [
    {
      "name": "OSG_Scene",
      "nodes": [
        0
      ]
    }
  ]
}

