{
  "accessors": [
    {
      "bufferView": 2,
      "componentType": 5126,
      "count": 324,
      "max": [
        1.8496489524841309,
        -21.657379150390625,
        19.084205627441406
      ],
      "min": [
        -1.8496489524841309,
        -23.081615447998047,
        17.592626571655273
      ],
      "type": "VEC3"
    },
    {
      "bufferView": 2,
      "byteOffset": 3888,
      "componentType": 5126,
      "count": 324,
      "max": [
        0.98014563322067261,
        0.89383584260940552,
        0.99313974380493164
      ],
      "min": [
        -0.98014563322067261,
        -0.98339706659317017,
        -0.99371421337127686
      ],
      "type": "VEC3"
    },
    {
      "bufferView": 3,
      "componentType": 5126,
      "count": 324,
      "max": [
        0.99910247325897217,
        0.99524635076522827,
        0.75941503047943115,
        1
      ],
      "min": [
        -0.098496153950691223,
        -0.99515914916992188,
        -0.75663566589355469,
        1
      ],
      "type": "VEC4"
    },
    {
      "bufferView": 1,
      "componentType": 5126,
      "count": 324,
      "max": [
        0.97694498300552368,
        0.59514600038528442
      ],
      "min": [
        0.884909987449646,
        0.45776298642158508
      ],
      "type": "VEC2"
    },
    {
      "bufferView": 0,
      "componentType": 5125,
      "count": 1536,
      "max": [
        323
      ],
      "min": [
        0
      ],
      "type": "SCALAR"
    },
    {
      "bufferView": 2,
      "byteOffset": 7776,
      "componentType": 5126,
      "count": 2184,
      "max": [
        1.6067960262298584,
        -22.579641342163086,
        15.420431137084961
      ],
      "min": [
        -1.6067960262298584,
        -29.475141525268555,
        11.562888145446777
      ],
      "type": "VEC3"
    },
    {
      "bufferView": 2,
      "byteOffset": 33984,
      "componentType": 5126,
      "count": 2184,
      "max": [
        0.99969035387039185,
        0.9936104416847229,
        0.992756187915802
      ],
      "min": [
        -0.99969035387039185,
        -0.99977809190750122,
        -0.99772888422012329
      ],
      "type": "VEC3"
    },
    {
      "bufferView": 3,
      "byteOffset": 5184,
      "componentType": 5126,
      "count": 2184,
      "max": [
        0.99978667497634888,
        0.99989384412765503,
        0.98172104358673096,
        1
      ],
      "min": [
        -0.99978667497634888,
        -0.99952238798141479,
        -0.98172074556350708,
        -1
      ],
      "type": "VEC4"
    },
    {
      "bufferView": 1,
      "byteOffset": 2592,
      "componentType": 5126,
      "count": 2184,
      "max": [
        0.98977398872375488,
        0.97916102409362793
      ],
      "min": [
        0.010750000365078449,
        0.01027000043541193
      ],
      "type": "VEC2"
    },
    {
      "bufferView": 0,
      "byteOffset": 6144,
      "componentType": 5125,
      "count": 8580,
      "max": [
        2183
      ],
      "min": [
        0
      ],
      "type": "SCALAR"
    },
    {
      "bufferView": 2,
      "byteOffset": 60192,
      "componentType": 5126,
      "count": 292,
      "max": [
        1.8436629772186279,
        -21.386419296264648,
        19.092039108276367
      ],
      "min": [
        -1.8436629772186279,
        -23.158441543579102,
        17.320014953613281
      ],
      "type": "VEC3"
    },
    {
      "bufferView": 2,
      "byteOffset": 63696,
      "componentType": 5126,
      "count": 292,
      "max": [
        1,
        1,
        1
      ],
      "min": [
        -1,
        -1,
        -1
      ],
      "type": "VEC3"
    },
    {
      "bufferView": 3,
      "byteOffset": 40128,
      "componentType": 5126,
      "count": 292,
      "max": [
        0.81466102600097656,
        0.98859518766403198,
        0.85342007875442505,
        1
      ],
      "min": [
        -0.81466102600097656,
        -0.99455434083938599,
        -0.85342031717300415,
        -1
      ],
      "type": "VEC4"
    },
    {
      "bufferView": 1,
      "byteOffset": 20064,
      "componentType": 5126,
      "count": 292,
      "max": [
        0.97193700075149536,
        0.47326800227165222
      ],
      "min": [
        0.028062999248504639,
        0.027801999822258949
      ],
      "type": "VEC2"
    },
    {
      "bufferView": 0,
      "byteOffset": 40464,
      "componentType": 5125,
      "count": 1584,
      "max": [
        291
      ],
      "min": [
        0
      ],
      "type": "SCALAR"
    },
    {
      "bufferView": 2,
      "byteOffset": 67200,
      "componentType": 5126,
      "count": 16348,
      "max": [
        6.7397527694702148,
        43.015945434570312,
        19.484302520751953
      ],
      "min": [
        -6.7352838516235352,
        -30.291749954223633,
        -15.010165214538574
      ],
      "type": "VEC3"
    },
    {
      "bufferView": 2,
      "byteOffset": 263376,
      "componentType": 5126,
      "count": 16348,
      "max": [
        0.9999992847442627,
        0.99999237060546875,
        0.99999642372131348
      ],
      "min": [
        -0.9999992847442627,
        -0.99983984231948853,
        -0.9999622106552124
      ],
      "type": "VEC3"
    },
    {
      "bufferView": 3,
      "byteOffset": 44800,
      "componentType": 5126,
      "count": 16348,
      "max": [
        0.99998986721038818,
        0.99940747022628784,
        0.9999883770942688,
        1
      ],
      "min": [
        -1,
        -0.99996805191040039,
        -0.9997258186340332,
        1
      ],
      "type": "VEC4"
    },
    {
      "bufferView": 1,
      "byteOffset": 22400,
      "componentType": 5126,
      "count": 16348,
      "max": [
        0.96474498510360718,
        0.99100500345230103
      ],
      "min": [
        0.010479000397026539,
        0.0055990000255405903
      ],
      "type": "VEC2"
    },
    {
      "bufferView": 0,
      "byteOffset": 46800,
      "componentType": 5125,
      "count": 91896,
      "max": [
        16347
      ],
      "min": [
        0
      ],
      "type": "SCALAR"
    },
    {
      "bufferView": 2,
      "byteOffset": 459552,
      "componentType": 5126,
      "count": 1251,
      "max": [
        0.086503997445106506,
        -18.863439559936523,
        19.605203628540039
      ],
      "min": [
        -0.086502999067306519,
        -20.867832183837891,
        17.396774291992188
      ],
      "type": "VEC3"
    },
    {
      "bufferView": 2,
      "byteOffset": 474564,
      "componentType": 5126,
      "count": 1251,
      "max": [
        0.99998700618743896,
        0.99993503093719482,
        0.9997667670249939
      ],
      "min": [
        -0.99998700618743896,
        -0.96046018600463867,
        -0.99980002641677856
      ],
      "type": "VEC3"
    },
    {
      "bufferView": 3,
      "byteOffset": 306368,
      "componentType": 5126,
      "count": 1251,
      "max": [
        0.72097152471542358,
        0.99979996681213379,
        0.99993634223937988,
        1
      ],
      "min": [
        -1,
        -0.9999006986618042,
        -0.99571394920349121,
        1
      ],
      "type": "VEC4"
    },
    {
      "bufferView": 0,
      "byteOffset": 414384,
      "componentType": 5125,
      "count": 4968,
      "max": [
        1250
      ],
      "min": [
        0
      ],
      "type": "SCALAR"
    }
  ],
  "asset": {
    "extras": {
      "author": "chuckcg (https://sketchfab.com/chuckcg)",
      "license": "CC-BY-4.0 (http://creativecommons.org/licenses/by/4.0/)",
      "source": "https://sketchfab.com/models/8685e8c6eff34d6c891509df7dbe311a",
      "title": "toon Dinosaur creature 3"
    },
    "generator": "Sketchfab-3.23.2",
    "version": "2.0"
  },
  "bufferViews": [
    {
      "buffer": 0,
      "byteLength": 434256,
      "byteOffset": 0,
      "name": "floatBufferViews",
      "target": 34963
    },
    {
      "buffer": 0,
      "byteLength": 153184,
      "byteOffset": 434256,
      "byteStride": 8,
      "name": "floatBufferViews",
      "target": 34962
    },
    {
      "buffer": 0,
      "byteLength": 489576,
      "byteOffset": 587440,
      "byteStride": 12,
      "name": "floatBufferViews",
      "target": 34962
    },
    {
      "buffer": 0,
      "byteLength": 326384,
      "byteOffset": 1077016,
      "byteStride": 16,
      "name": "floatBufferViews",
      "target": 34962
    }
  ],
  "buffers": [
    {
      "byteLength": 1403400,
      "uri": "scene.bin"
    }
  ],
  "images": [
    {
      "uri": "textures/Material.001_baseColor.png"
    },
    {
      "uri": "textures/body_mat_baseColor.png"
    },
    {
      "uri": "textures/body_mat_normal.png"
    },
    {
      "uri": "textures/body_mat_metallicRoughness.png"
    },
    {
      "uri": "textures/Material.003_baseColor.png"
    },
    {
      "uri": "textures/Material.002_baseColor.png"
    }
  ],
  "materials": [
    {
      "doubleSided": true,
      "name": "Material.001",
      "pbrMetallicRoughness": {
        "baseColorFactor": [
          1,
          1,
          1,
          1
        ],
        "baseColorTexture": {
          "index": 0,
          "texCoord": 0
        },
        "metallicFactor": 0,
        "roughnessFactor": 0.27610518290000002
      }
    },
    {
      "doubleSided": true,
      "emissiveFactor": [
        0,
        0,
        0
      ],
      "name": "Material.002",
      "pbrMetallicRoughness": {
        "baseColorFactor": [
          1,
          1,
          1,
          1
        ],
        "baseColorTexture": {
          "index": 5,
          "texCoord": 0
        },
        "metallicFactor": 0,
        "roughnessFactor": 0.41025152440000001
      }
    },
    {
      "doubleSided": true,
      "emissiveFactor": [
        0,
        0,
        0
      ],
      "name": "Material.003",
      "pbrMetallicRoughness": {
        "baseColorFactor": [
          1,
          1,
          1,
          1
        ],
        "baseColorTexture": {
          "index": 4,
          "texCoord": 0
        },
        "metallicFactor": 0,
        "roughnessFactor": 0
      }
    },
    {
      "doubleSided": false,
      "name": "body_mat",
      "normalTexture": {
        "index": 2,
        "scale": 1,
        "texCoord": 0
      },
      "pbrMetallicRoughness": {
        "baseColorFactor": [
          1,
          1,
          1,
          1
        ],
        "baseColorTexture": {
          "index": 1,
          "texCoord": 0
        },
        "metallicFactor": 0,
        "metallicRoughnessTexture": {
          "index": 3,
          "texCoord": 0
        },
        "roughnessFactor": 0.67244664629999995
      }
    },
    {
      "doubleSided": true,
      "emissiveFactor": [
        0,
        0,
        0
      ],
      "name": "body_mat_NONE",
      "pbrMetallicRoughness": {
        "baseColorFactor": [
          0,
          0,
          0,
          1
        ],
        "metallicFactor": 0,
        "roughnessFactor": 0.39805640240000001
      }
    }
  ],
  "meshes": [
    {
      "primitives": [
        {
          "attributes": {
            "NORMAL": 1,
            "POSITION": 0,
            "TANGENT": 2,
            "TEXCOORD_0": 3
          },
          "indices": 4,
          "material": 0,
          "mode": 4
        }
      ]
    },
    {
      "primitives": [
        {
          "attributes": {
            "NORMAL": 6,
            "POSITION": 5,
            "TANGENT": 7,
            "TEXCOORD_0": 8
          },
          "indices": 9,
          "material": 1,
          "mode": 4
        }
      ]
    },
    {
      "primitives": [
        {
          "attributes": {
            "NORMAL": 11,
            "POSITION": 10,
            "TANGENT": 12,
            "TEXCOORD_0": 13
          },
          "indices": 14,
          "material": 2,
          "mode": 4
        }
      ]
    },
    {
      "primitives": [
        {
          "attributes": {
            "NORMAL": 16,
            "POSITION": 15,
            "TANGENT": 17,
            "TEXCOORD_0": 18
          },
          "indices": 19,
          "material": 3,
          "mode": 4
        }
      ]
    },
    {
      "primitives": [
        {
          "attributes": {
            "NORMAL": 21,
            "POSITION": 20,
            "TANGENT": 22
          },
          "indices": 23,
          "material": 4,
          "mode": 4
        }
      ]
    }
  ],
  "nodes": [
    {
      "children": [
        1
      ],
      "name": "RootNode (gltf orientation matrix)",
      "rotation": [
        -0.70710678118654746,
        -0,
        -0,
        0.70710678118654757
      ]
    },
    {
      "children": [
        2
      ],
      "name": "RootNode (model correction matrix)"
    },
    {
      "children": [
        3,
        4,
        5,
        6,
        7
      ],
      "name": "dino toon.OBJ.cleaner.materialmerger.gles"
    },
    {
      "mesh": 0,
      "name": ""
    },
    {
      "mesh": 1,
      "name": ""
    },
    {
      "mesh": 2,
      "name": ""
    },
    {
      "mesh": 3,
      "name": ""
    },
    {
      "mesh": 4,
      "name": ""
    }
  ],
  "samplers": [
    {
      "magFilter": 9729,
      "minFilter": 9987,
      "wrapS": 10497,
      "wrapT": 10497
    }
  ],
  "scene": 0,
  "scenes": [
    {
      "name": "OSG_Scene",
      "nodes": [
        0
      ]
    }
  ],
  "textures": [
    {
      "sampler": 0,
      "source": 0
    },
    {
      "sampler": 0,
      "source": 1
    },
    {
      "sampler": 0,
      "source": 2
    },
    {
      "sampler": 0,
      "source": 3
    },
    {
      "sampler": 0,
      "source": 4
    },
    {
      "sampler": 0,
      "source": 5
    }
  ]
}

