{
  "accessors": [
    {
      "bufferView": 2,
      "componentType": 5126,
      "count": 102,
      "max": [
        787.401611328125,
        1584.64599609375,
        0.39370080828666687
      ],
      "min": [
        -7.1054269340845282e-15,
        -8.5265128291212022e-14,
        0.39370080828666687
      ],
      "type": "VEC3"
    },
    {
      "bufferView": 2,
      "byteOffset": 1224,
      "componentType": 5126,
      "count": 102,
      "max": [
        -3.6550540391374478e-17,
        -7.5379640563098499e-19,
        1
      ],
      "min": [
        -3.6550540391374478e-17,
        -7.5379640563098499e-19,
        1
      ],
      "type": "VEC3"
    },
    {
      "bufferView": 3,
      "componentType": 5126,
      "count": 102,
      "max": [
        0.70714777708053589,
        0.70833706855773926,
        2.637961526056738e-17,
        1
      ],
      "min": [
        0.70587432384490967,
        0.70706582069396973,
        2.6334030991370808e-17,
        1
      ],
      "type": "VEC4"
    },
    {
      "bufferView": 1,
      "componentType": 5126,
      "count": 102,
      "max": [
        5.2426471710205078,
        7.8284358978271484
      ],
      "min": [
        -3.2072899341583252,
        -0.62150061130523682
      ],
      "type": "VEC2"
    },
    {
      "bufferView": 0,
      "componentType": 5125,
      "count": 240,
      "max": [
        101
      ],
      "min": [
        0
      ],
      "type": "SCALAR"
    },
    {
      "bufferView": 2,
      "byteOffset": 2448,
      "componentType": 5126,
      "count": 6424,
      "max": [
        797.24407958984375,
        1584.64599609375,
        493.64898681640625
      ],
      "min": [
        -9.8425197601318359,
        -1.1368679706403456e-13,
        0.39370080828666687
      ],
      "type": "VEC3"
    },
    {
      "bufferView": 2,
      "byteOffset": 79536,
      "componentType": 5126,
      "count": 6424,
      "max": [
        1,
        1,
        1
      ],
      "min": [
        -1,
        -1,
        -1
      ],
      "type": "VEC3"
    },
    {
      "bufferView": 0,
      "byteOffset": 960,
      "componentType": 5125,
      "count": 15321,
      "max": [
        6423
      ],
      "min": [
        0
      ],
      "type": "SCALAR"
    },
    {
      "bufferView": 2,
      "byteOffset": 156624,
      "componentType": 5126,
      "count": 9997,
      "max": [
        797.24407958984375,
        1594.8819580078125,
        456.91650390625
      ],
      "min": [
        -10.236220359802246,
        -9.8425197601318359,
        0.39370080828666687
      ],
      "type": "VEC3"
    },
    {
      "bufferView": 2,
      "byteOffset": 276588,
      "componentType": 5126,
      "count": 9997,
      "max": [
        1,
        1,
        1
      ],
      "min": [
        -1,
        -1,
        -1
      ],
      "type": "VEC3"
    },
    {
      "bufferView": 0,
      "byteOffset": 62244,
      "componentType": 5125,
      "count": 19824,
      "max": [
        9996
      ],
      "min": [
        0
      ],
      "type": "SCALAR"
    },
    {
      "bufferView": 2,
      "byteOffset": 396552,
      "componentType": 5126,
      "count": 4580,
      "max": [
        797.24407958984375,
        1594.8819580078125,
        493.64898681640625
      ],
      "min": [
        -10.236220359802246,
        -9.8425197601318359,
        0.39370080828666687
      ],
      "type": "VEC3"
    },
    {
      "bufferView": 2,
      "byteOffset": 451512,
      "componentType": 5126,
      "count": 4580,
      "max": [
        1,
        1,
        1
      ],
      "min": [
        -1,
        -1,
        -1
      ],
      "type": "VEC3"
    },
    {
      "bufferView": 0,
      "byteOffset": 141540,
      "componentType": 5125,
      "count": 8751,
      "max": [
        4579
      ],
      "min": [
        0
      ],
      "type": "SCALAR"
    },
    {
      "bufferView": 2,
      "byteOffset": 506472,
      "componentType": 5126,
      "count": 451,
      "max": [
        796.85040283203125,
        1574.802978515625,
        342.42129516601562
      ],
      "min": [
        -9.8425197601318359,
        -8.5265128291212022e-14,
        67.322830200195312
      ],
      "type": "VEC3"
    },
    {
      "bufferView": 2,
      "byteOffset": 511884,
      "componentType": 5126,
      "count": 451,
      "max": [
        1,
        1,
        1
      ],
      "min": [
        -1,
        -1,
        -1
      ],
      "type": "VEC3"
    },
    {
      "bufferView": 3,
      "byteOffset": 1632,
      "componentType": 5126,
      "count": 451,
      "max": [
        1,
        1,
        9.0545272541930899e-06,
        1
      ],
      "min": [
        -1,
        -1,
        -2.9068585263303248e-06,
        1
      ],
      "type": "VEC4"
    },
    {
      "bufferView": 1,
      "byteOffset": 816,
      "componentType": 5126,
      "count": 451,
      "max": [
        13.333330154418945,
        13.166669845581055
      ],
      "min": [
        -13.333330154418945,
        -7.2191141080782243e-16
      ],
      "type": "VEC2"
    },
    {
      "bufferView": 0,
      "byteOffset": 176544,
      "componentType": 5125,
      "count": 891,
      "max": [
        450
      ],
      "min": [
        0
      ],
      "type": "SCALAR"
    },
    {
      "bufferView": 2,
      "byteOffset": 517296,
      "componentType": 5126,
      "count": 265,
      "max": [
        831.339599609375,
        1624.0159912109375,
        498.01290893554688
      ],
      "min": [
        -43.938011169433594,
        -39.370079040527344,
        0.39370080828666687
      ],
      "type": "VEC3"
    },
    {
      "bufferView": 2,
      "byteOffset": 520476,
      "componentType": 5126,
      "count": 265,
      "max": [
        0.5,
        1,
        0
      ],
      "min": [
        -0.5,
        -1,
        -0.86602538824081421
      ],
      "type": "VEC3"
    },
    {
      "bufferView": 3,
      "byteOffset": 8848,
      "componentType": 5126,
      "count": 265,
      "max": [
        1,
        1,
        1,
        1
      ],
      "min": [
        -1,
        -1,
        -2.0761106497957371e-05,
        1
      ],
      "type": "VEC4"
    },
    {
      "bufferView": 1,
      "byteOffset": 4424,
      "componentType": 5126,
      "count": 265,
      "max": [
        13.75,
        6.3820347785949707
      ],
      "min": [
        -13.75,
        -6.4613161087036133
      ],
      "type": "VEC2"
    },
    {
      "bufferView": 0,
      "byteOffset": 180108,
      "componentType": 5125,
      "count": 591,
      "max": [
        264
      ],
      "min": [
        0
      ],
      "type": "SCALAR"
    },
    {
      "bufferView": 2,
      "byteOffset": 523656,
      "componentType": 5126,
      "count": 176,
      "max": [
        777.55908203125,
        1594.488037109375,
        236.61419677734375
      ],
      "min": [
        9.8425197601318359,
        -9.8425197601318359,
        67.322830200195312
      ],
      "type": "VEC3"
    },
    {
      "bufferView": 2,
      "byteOffset": 525768,
      "componentType": 5126,
      "count": 176,
      "max": [
        1,
        1,
        1
      ],
      "min": [
        -1,
        -1,
        -1
      ],
      "type": "VEC3"
    },
    {
      "bufferView": 3,
      "byteOffset": 13088,
      "componentType": 5126,
      "count": 176,
      "max": [
        1,
        1,
        1.6375115592381917e-05,
        1
      ],
      "min": [
        -1,
        -1,
        -2.0020919691887684e-05,
        1
      ],
      "type": "VEC4"
    },
    {
      "bufferView": 1,
      "byteOffset": 6544,
      "componentType": 5126,
      "count": 176,
      "max": [
        13.5,
        13.5
      ],
      "min": [
        -13.5,
        -0.083333328366279602
      ],
      "type": "VEC2"
    },
    {
      "bufferView": 0,
      "byteOffset": 182472,
      "componentType": 5125,
      "count": 384,
      "max": [
        175
      ],
      "min": [
        0
      ],
      "type": "SCALAR"
    },
    {
      "bufferView": 2,
      "byteOffset": 527880,
      "componentType": 5126,
      "count": 166,
      "max": [
        787.401611328125,
        1584.64599609375,
        256.2991943359375
      ],
      "min": [
        -3.957723038183758e-12,
        -8.5265128291212022e-14,
        0.39370080828666687
      ],
      "type": "VEC3"
    },
    {
      "bufferView": 2,
      "byteOffset": 529872,
      "componentType": 5126,
      "count": 166,
      "max": [
        1,
        1,
        1
      ],
      "min": [
        -1,
        -1,
        -1
      ],
      "type": "VEC3"
    },
    {
      "bufferView": 0,
      "byteOffset": 184008,
      "componentType": 5125,
      "count": 282,
      "max": [
        165
      ],
      "min": [
        0
      ],
      "type": "SCALAR"
    },
    {
      "bufferView": 2,
      "byteOffset": 531864,
      "componentType": 5126,
      "count": 2520,
      "max": [
        607.77557373046875,
        1402.5589599609375,
        138.18899536132812
      ],
      "min": [
        179.62600708007812,
        182.08659362792969,
        128.34649658203125
      ],
      "type": "VEC3"
    },
    {
      "bufferView": 2,
      "byteOffset": 562104,
      "componentType": 5126,
      "count": 2520,
      "max": [
        1,
        1,
        1
      ],
      "min": [
        -1,
        -1,
        -1
      ],
      "type": "VEC3"
    },
    {
      "bufferView": 0,
      "byteOffset": 185136,
      "componentType": 5125,
      "count": 7434,
      "max": [
        2519
      ],
      "min": [
        0
      ],
      "type": "SCALAR"
    },
    {
      "bufferView": 2,
      "byteOffset": 592344,
      "componentType": 5126,
      "count": 9984,
      "max": [
        797.24407958984375,
        1594.8819580078125,
        236.61419677734375
      ],
      "min": [
        -10.236220359802246,
        -9.8425197601318359,
        138.18899536132812
      ],
      "type": "VEC3"
    },
    {
      "bufferView": 2,
      "byteOffset": 712152,
      "componentType": 5126,
      "count": 9984,
      "max": [
        1,
        1,
        1
      ],
      "min": [
        -1,
        -1,
        -1
      ],
      "type": "VEC3"
    },
    {
      "bufferView": 0,
      "byteOffset": 214872,
      "componentType": 5125,
      "count": 21960,
      "max": [
        9983
      ],
      "min": [
        0
      ],
      "type": "SCALAR"
    },
    {
      "bufferView": 2,
      "byteOffset": 831960,
      "componentType": 5126,
      "count": 74,
      "max": [
        588.090576171875,
        1584.64599609375,
        433.89349365234375
      ],
      "min": [
        199.31100463867188,
        -1.1368679706403456e-13,
        138.18899536132812
      ],
      "type": "VEC3"
    },
    {
      "bufferView": 0,
      "byteOffset": 302712,
      "componentType": 5125,
      "count": 76,
      "max": [
        73
      ],
      "min": [
        0
      ],
      "type": "SCALAR"
    }
  ],
  "asset": {
    "extras": {
      "author": "Aaron Openshaw (https://sketchfab.com/aaronopenshaw)",
      "license": "CC-BY-4.0 (http://creativecommons.org/licenses/by/4.0/)",
      "source": "https://sketchfab.com/models/aade690b2794491e909741aa5dbdb5d8",
      "title": "Carpet Tile Layout Inspired By Tukutuku Panels"
    },
    "generator": "Sketchfab-3.20.7",
    "version": "2.0"
  },
  "bufferViews": [
    {
      "buffer": 0,
      "byteLength": 303016,
      "byteOffset": 0,
      "name": "floatBufferViews",
      "target": 34963
    },
    {
      "buffer": 0,
      "byteLength": 7952,
      "byteOffset": 303016,
      "byteStride": 8,
      "name": "floatBufferViews",
      "target": 34962
    },
    {
      "buffer": 0,
      "byteLength": 832848,
      "byteOffset": 310968,
      "byteStride": 12,
      "name": "floatBufferViews",
      "target": 34962
    },
    {
      "buffer": 0,
      "byteLength": 15904,
      "byteOffset": 1143816,
      "byteStride": 16,
      "name": "floatBufferViews",
      "target": 34962
    }
  ],
  "buffers": [
    {
      "byteLength": 1159720,
      "uri": "scene.bin"
    }
  ],
  "images": [
    {
      "uri": "textures/material_6_baseColor.jpg"
    },
    {
      "uri": "textures/material_4_baseColor.jpeg"
    },
    {
      "uri": "textures/Walls_baseColor.jpeg"
    },
    {
      "uri": "textures/Long_Walls_baseColor.jpeg"
    }
  ],
  "materials": [
    {
      "doubleSided": false,
      "emissiveFactor": [
        0,
        0,
        0
      ],
      "name": "Structure",
      "pbrMetallicRoughness": {
        "baseColorFactor": [
          0.45490199999999997,
          0.466667,
          0.443137,
          1
        ],
        "metallicFactor": 0,
        "roughnessFactor": 0.59999999999999998
      }
    },
    {
      "doubleSided": false,
      "emissiveFactor": [
        0,
        0,
        0
      ],
      "name": "material",
      "pbrMetallicRoughness": {
        "baseColorFactor": [
          1,
          1,
          1,
          1
        ],
        "metallicFactor": 0,
        "roughnessFactor": 0.59999999999999998
      }
    },
    {
      "doubleSided": false,
      "emissiveFactor": [
        0,
        0,
        0
      ],
      "name": "Long_Walls",
      "pbrMetallicRoughness": {
        "baseColorFactor": [
          1,
          1,
          1,
          1
        ],
        "baseColorTexture": {
          "index": 3,
          "texCoord": 0
        },
        "metallicFactor": 0,
        "roughnessFactor": 0.59999999999999998
      }
    },
    {
      "doubleSided": false,
      "emissiveFactor": [
        0,
        0,
        0
      ],
      "name": "material_4",
      "pbrMetallicRoughness": {
        "baseColorFactor": [
          1,
          1,
          1,
          1
        ],
        "baseColorTexture": {
          "index": 1,
          "texCoord": 0
        },
        "metallicFactor": 0,
        "roughnessFactor": 0.59999999999999998
      }
    },
    {
      "doubleSided": false,
      "emissiveFactor": [
        0,
        0,
        0
      ],
      "name": "Walls",
      "pbrMetallicRoughness": {
        "baseColorFactor": [
          1,
          1,
          1,
          1
        ],
        "baseColorTexture": {
          "index": 2,
          "texCoord": 0
        },
        "metallicFactor": 0,
        "roughnessFactor": 0.59999999999999998
      }
    },
    {
      "doubleSided": false,
      "emissiveFactor": [
        0,
        0,
        0
      ],
      "name": "Wall_Horizon",
      "pbrMetallicRoughness": {
        "baseColorFactor": [
          0.38039200000000001,
          0.388235,
          0.35686299999999999,
          1
        ],
        "metallicFactor": 0,
        "roughnessFactor": 0.59999999999999998
      }
    },
    {
      "doubleSided": false,
      "emissiveFactor": [
        1,
        1,
        1
      ],
      "name": "Red_Lamp",
      "pbrMetallicRoughness": {
        "baseColorFactor": [
          1,
          0.972549,
          0.972549,
          1
        ],
        "metallicFactor": 0,
        "roughnessFactor": 0.59999999999999998
      }
    },
    {
      "doubleSided": false,
      "emissiveFactor": [
        0,
        0,
        0
      ],
      "name": "Grey",
      "pbrMetallicRoughness": {
        "baseColorFactor": [
          1,
          1,
          1,
          1
        ],
        "metallicFactor": 0,
        "roughnessFactor": 0.59999999999999998
      }
    },
    {
      "doubleSided": false,
      "name": "material_6",
      "pbrMetallicRoughness": {
        "baseColorFactor": [
          1,
          1,
          1,
          1
        ],
        "baseColorTexture": {
          "index": 0,
          "texCoord": 0
        },
        "metallicFactor": 0,
        "roughnessFactor": 0.59999999999999998
      }
    },
    {
      "doubleSided": false,
      "emissiveFactor": [
        0,
        0,
        0
      ],
      "name": "edge_color000255",
      "pbrMetallicRoughness": {
        "baseColorFactor": [
          1,
          1,
          1,
          1
        ],
        "metallicFactor": 0,
        "roughnessFactor": 0.59999999999999998
      }
    }
  ],
  "meshes": [
    {
      "name": "Material2",
      "primitives": [
        {
          "attributes": {
            "NORMAL": 1,
            "POSITION": 0,
            "TANGENT": 2,
            "TEXCOORD_0": 3
          },
          "indices": 4,
          "material": 8,
          "mode": 4
        }
      ]
    },
    {
      "name": "Material2",
      "primitives": [
        {
          "attributes": {
            "NORMAL": 6,
            "POSITION": 5
          },
          "indices": 7,
          "material": 0,
          "mode": 4
        }
      ]
    },
    {
      "name": "Material2",
      "primitives": [
        {
          "attributes": {
            "NORMAL": 9,
            "POSITION": 8
          },
          "indices": 10,
          "material": 1,
          "mode": 4
        }
      ]
    },
    {
      "name": "Material2",
      "primitives": [
        {
          "attributes": {
            "NORMAL": 12,
            "POSITION": 11
          },
          "indices": 13,
          "material": 1,
          "mode": 4
        }
      ]
    },
    {
      "name": "Material2",
      "primitives": [
        {
          "attributes": {
            "NORMAL": 15,
            "POSITION": 14,
            "TANGENT": 16,
            "TEXCOORD_0": 17
          },
          "indices": 18,
          "material": 2,
          "mode": 4
        }
      ]
    },
    {
      "name": "Material2",
      "primitives": [
        {
          "attributes": {
            "NORMAL": 20,
            "POSITION": 19,
            "TANGENT": 21,
            "TEXCOORD_0": 22
          },
          "indices": 23,
          "material": 3,
          "mode": 4
        }
      ]
    },
    {
      "name": "Material2",
      "primitives": [
        {
          "attributes": {
            "NORMAL": 25,
            "POSITION": 24,
            "TANGENT": 26,
            "TEXCOORD_0": 27
          },
          "indices": 28,
          "material": 4,
          "mode": 4
        }
      ]
    },
    {
      "name": "Material2",
      "primitives": [
        {
          "attributes": {
            "NORMAL": 30,
            "POSITION": 29
          },
          "indices": 31,
          "material": 5,
          "mode": 4
        }
      ]
    },
    {
      "name": "Material2",
      "primitives": [
        {
          "attributes": {
            "NORMAL": 33,
            "POSITION": 32
          },
          "indices": 34,
          "material": 6,
          "mode": 4
        }
      ]
    },
    {
      "name": "Material3",
      "primitives": [
        {
          "attributes": {
            "NORMAL": 36,
            "POSITION": 35
          },
          "indices": 37,
          "material": 7,
          "mode": 4
        }
      ]
    },
    {
      "name": "Material2",
      "primitives": [
        {
          "attributes": {
            "POSITION": 38
          },
          "indices": 39,
          "material": 9,
          "mode": 1
        }
      ]
    }
  ],
  "nodes": [
    {
      "children": [
        1
      ],
      "name": "RootNode (gltf orientation matrix)",
      "rotation": [
        -0.70710678118654746,
        -0,
        -0,
        0.70710678118654757
      ]
    },
    {
      "children": [
        2
      ],
      "name": "RootNode (model correction matrix)"
    },
    {
      "children": [
        3
      ],
      "name": "Collada visual scene group"
    },
    {
      "children": [
        6,
        7,
        8,
        9,
        10,
        11,
        12,
        13,
        14,
        15,
        16,
        4
      ],
      "name": "SketchUp"
    },
    {
      "children": [
        5
      ],
      "matrix": [
        0.97935570000000005,
        -0.20214470000000001,
        -6.9388940000000007e-18,
        0,
        0.037546019999999999,
        0.18190390000000001,
        0.98259929999999995,
        0,
        -0.1986272,
        -0.96231409999999995,
        0.1857383,
        0,
        322.88729999999998,
        874.67570000000001,
        76.962959999999995,
        1
      ],
      "name": "skp_camera_Last_Saved_SketchUp_View"
    },
    {
      "name": "ID1"
    },
    {
      "mesh": 0,
      "name": "Material2"
    },
    {
      "mesh": 1,
      "name": "Material2"
    },
    {
      "mesh": 2,
      "name": "Material2"
    },
    {
      "mesh": 3,
      "name": "Material2"
    },
    {
      "mesh": 4,
      "name": "Material2"
    },
    {
      "mesh": 5,
      "name": "Material2"
    },
    {
      "mesh": 6,
      "name": "Material2"
    },
    {
      "mesh": 7,
      "name": "Material2"
    },
    {
      "mesh": 8,
      "name": "Material2"
    },
    {
      "mesh": 9,
      "name": "Material3"
    },
    {
      "mesh": 10,
      "name": "Material2"
    }
  ],
  "samplers": [
    {
      "magFilter": 9729,
      "minFilter": 9987,
      "wrapS": 10497,
      "wrapT": 10497
    }
  ],
  "scene": 0,
  "scenes": [
    {
      "name": "OSG_Scene",
      "nodes": [
        0
      ]
    }
  ],
  "textures": [
    {
      "sampler": 0,
      "source": 0
    },
    {
      "sampler": 0,
      "source": 1
    },
    {
      "sampler": 0,
      "source": 2
    },
    {
      "sampler": 0,
      "source": 3
    }
  ]
}

