{
  "accessors": [
    {
      "bufferView": 2,
      "componentType": 5126,
      "count": 737,
      "max": [
        41.5,
        3.9999999899009708e-06,
        0.99999397993087769
      ],
      "min": [
        -41.5,
        -54,
        -54.25
      ],
      "type": "VEC3"
    },
    {
      "bufferView": 2,
      "byteOffset": 8844,
      "componentType": 5126,
      "count": 737,
      "max": [
        1,
        1,
        1
      ],
      "min": [
        -1,
        -1,
        -1
      ],
      "type": "VEC3"
    },
    {
      "bufferView": 3,
      "componentType": 5126,
      "count": 737,
      "max": [
        1,
        1,
        1,
        1
      ],
      "min": [
        -0.97978311777114868,
        -1,
        -1,
        1
      ],
      "type": "VEC4"
    },
    {
      "bufferView": 1,
      "componentType": 5126,
      "count": 737,
      "max": [
        0.99975597858428955,
        0.7929689884185791
      ],
      "min": [
        0.00024399999529123306,
        0.16821299493312836
      ],
      "type": "VEC2"
    },
    {
      "bufferView": 0,
      "componentType": 5125,
      "count": 3444,
      "max": [
        736
      ],
      "min": [
        0
      ],
      "type": "SCALAR"
    },
    {
      "bufferView": 2,
      "byteOffset": 17688,
      "componentType": 5126,
      "count": 232,
      "max": [
        38.5,
        -0,
        -6.0000002122251317e-06
      ],
      "min": [
        -38.5,
        -2,
        -2.2500059604644775
      ],
      "type": "VEC3"
    },
    {
      "bufferView": 2,
      "byteOffset": 20472,
      "componentType": 5126,
      "count": 232,
      "max": [
        1,
        1,
        1
      ],
      "min": [
        -1,
        -1,
        -1
      ],
      "type": "VEC3"
    },
    {
      "bufferView": 3,
      "byteOffset": 11792,
      "componentType": 5126,
      "count": 232,
      "max": [
        0.75716012716293335,
        1,
        0.7071068286895752,
        1
      ],
      "min": [
        -1,
        -1,
        -0.7071068286895752,
        1
      ],
      "type": "VEC4"
    },
    {
      "bufferView": 1,
      "byteOffset": 5896,
      "componentType": 5126,
      "count": 232,
      "max": [
        0.5217289924621582,
        0.64209002256393433
      ],
      "min": [
        0.48364299535751343,
        0.55004900693893433
      ],
      "type": "VEC2"
    },
    {
      "bufferView": 0,
      "byteOffset": 13776,
      "componentType": 5125,
      "count": 1056,
      "max": [
        231
      ],
      "min": [
        0
      ],
      "type": "SCALAR"
    }
  ],
  "asset": {
    "extras": {
      "author": "Brian Erbes (https://sketchfab.com/brian.sensei)",
      "license": "CC-BY-4.0 (http://creativecommons.org/licenses/by/4.0/)",
      "source": "https://sketchfab.com/models/6c1643b6fd0a43feb62f0c0b1457c802",
      "title": "Toshiba Satellite Laptop"
    },
    "generator": "Sketchfab-3.29.4",
    "version": "2.0"
  },
  "bufferViews": [
    {
      "buffer": 0,
      "byteLength": 18000,
      "byteOffset": 0,
      "name": "floatBufferViews",
      "target": 34963
    },
    {
      "buffer": 0,
      "byteLength": 7752,
      "byteOffset": 18000,
      "byteStride": 8,
      "name": "floatBufferViews",
      "target": 34962
    },
    {
      "buffer": 0,
      "byteLength": 23256,
      "byteOffset": 25752,
      "byteStride": 12,
      "name": "floatBufferViews",
      "target": 34962
    },
    {
      "buffer": 0,
      "byteLength": 15504,
      "byteOffset": 49008,
      "byteStride": 16,
      "name": "floatBufferViews",
      "target": 34962
    }
  ],
  "buffers": [
    {
      "byteLength": 64512,
      "uri": "scene.bin"
    }
  ],
  "images": [
    {
      "uri": "textures/unnamed_baseColor.png"
    },
    {
      "uri": "textures/None__Untitled_metallicRoughness.png"
    },
    {
      "uri": "textures/None__Untitled_normal.png"
    },
    {
      "uri": "textures/None__Untitled_baseColor.png"
    },
    {
      "uri": "textures/None__Untitled_emissive.png"
    }
  ],
  "materials": [
    {
      "doubleSided": true,
      "emissiveFactor": [
        1,
        1,
        1
      ],
      "emissiveTexture": {
        "index": 4,
        "texCoord": 0
      },
      "name": "None__Untitled",
      "normalTexture": {
        "index": 2,
        "scale": 1,
        "texCoord": 0
      },
      "occlusionTexture": {
        "index": 1,
        "strength": 1,
        "texCoord": 0
      },
      "pbrMetallicRoughness": {
        "baseColorFactor": [
          1,
          1,
          1,
          1
        ],
        "baseColorTexture": {
          "index": 3,
          "texCoord": 0
        },
        "metallicFactor": 1,
        "metallicRoughnessTexture": {
          "index": 1,
          "texCoord": 0
        },
        "roughnessFactor": 1
      }
    },
    {
      "doubleSided": true,
      "emissiveFactor": [
        0,
        0,
        0
      ],
      "name": "unnamed",
      "pbrMetallicRoughness": {
        "baseColorFactor": [
          1,
          1,
          1,
          1
        ],
        "baseColorTexture": {
          "index": 0,
          "texCoord": 0
        },
        "metallicFactor": 0,
        "roughnessFactor": 0.8127265213
      }
    }
  ],
  "meshes": [
    {
      "name": "original_001_None__Untitled_0",
      "primitives": [
        {
          "attributes": {
            "NORMAL": 1,
            "POSITION": 0,
            "TANGENT": 2,
            "TEXCOORD_0": 3
          },
          "indices": 4,
          "material": 0,
          "mode": 4
        }
      ]
    },
    {
      "name": "original_001_unnamed_0",
      "primitives": [
        {
          "attributes": {
            "NORMAL": 6,
            "POSITION": 5,
            "TANGENT": 7,
            "TEXCOORD_0": 8
          },
          "indices": 9,
          "material": 1,
          "mode": 4
        }
      ]
    }
  ],
  "nodes": [
    {
      "children": [
        1
      ],
      "name": "RootNode (gltf orientation matrix)",
      "rotation": [
        -0.70710678118654746,
        -0,
        -0,
        0.70710678118654757
      ]
    },
    {
      "children": [
        2
      ],
      "name": "RootNode (model correction matrix)"
    },
    {
      "children": [
        3
      ],
      "matrix": [
        1,
        0,
        0,
        0,
        0,
        0,
        1,
        0,
        0,
        -1,
        0,
        0,
        0,
        0,
        0,
        1
      ],
      "name": "mesh.fbx"
    },
    {
      "children": [
        4
      ],
      "name": "RootNode"
    },
    {
      "children": [
        5,
        6
      ],
      "matrix": [
        1,
        0,
        0,
        0,
        0,
        -0.9999999999999889,
        -1.5100031326465522e-07,
        0,
        0,
        1.5100031326465522e-07,
        -0.9999999999999889,
        0,
        0,
        0,
        -27.25,
        1
      ],
      "name": "original_001"
    },
    {
      "mesh": 0,
      "name": "original_001_None__Untitled_0"
    },
    {
      "mesh": 1,
      "name": "original_001_unnamed_0"
    }
  ],
  "samplers": [
    {
      "magFilter": 9729,
      "minFilter": 9987,
      "wrapS": 10497,
      "wrapT": 10497
    }
  ],
  "scene": 0,
  "scenes": [
    {
      "name": "OSG_Scene",
      "nodes": [
        0
      ]
    }
  ],
  "textures": [
    {
      "sampler": 0,
      "source": 0
    },
    {
      "sampler": 0,
      "source": 1
    },
    {
      "sampler": 0,
      "source": 2
    },
    {
      "sampler": 0,
      "source": 3
    },
    {
      "sampler": 0,
      "source": 4
    }
  ]
}

